<svg id="visual" viewBox="0 0 1920 1080" width="1920" height="1080" xmlns="http://www.w3.org/2000/svg" xmlns:xlink="http://www.w3.org/1999/xlink" version="1.1"><rect x="0" y="0" width="1920" height="1080" fill="#001220"></rect><path d="M0 252L45.7 261.3C91.3 270.7 182.7 289.3 274.2 312.7C365.7 336 457.3 364 548.8 371.7C640.3 379.3 731.7 366.7 823 343.3C914.3 320 1005.7 286 1097 265.8C1188.3 245.7 1279.7 239.3 1371.2 252.5C1462.7 265.7 1554.3 298.3 1645.8 300.5C1737.3 302.7 1828.7 274.3 1874.3 260.2L1920 246L1920 0L1874.3 0C1828.7 0 1737.3 0 1645.8 0C1554.3 0 1462.7 0 1371.2 0C1279.7 0 1188.3 0 1097 0C1005.7 0 914.3 0 823 0C731.7 0 640.3 0 548.8 0C457.3 0 365.7 0 274.2 0C182.7 0 91.3 0 45.7 0L0 0Z" fill="#4facf7"></path><path d="M0 232L45.7 231.7C91.3 231.3 182.7 230.7 274.2 226.2C365.7 221.7 457.3 213.3 548.8 207.7C640.3 202 731.7 199 823 198C914.3 197 1005.7 198 1097 188.3C1188.3 178.7 1279.7 158.3 1371.2 163.7C1462.7 169 1554.3 200 1645.8 203.8C1737.3 207.7 1828.7 184.3 1874.3 172.7L1920 161L1920 0L1874.3 0C1828.7 0 1737.3 0 1645.8 0C1554.3 0 1462.7 0 1371.2 0C1279.7 0 1188.3 0 1097 0C1005.7 0 914.3 0 823 0C731.7 0 640.3 0 548.8 0C457.3 0 365.7 0 274.2 0C182.7 0 91.3 0 45.7 0L0 0Z" fill="#0066ff"></path></svg>