<svg id="visual" viewBox="0 0 1920 1080" width="1920" height="1080" xmlns="http://www.w3.org/2000/svg" xmlns:xlink="http://www.w3.org/1999/xlink" version="1.1"><rect x="0" y="0" width="1920" height="1080" fill="#002233"></rect><path d="M0 201L45.7 230C91.3 259 182.7 317 274.2 318.5C365.7 320 457.3 265 548.8 262.3C640.3 259.7 731.7 309.3 823 319.3C914.3 329.3 1005.7 299.7 1097 269.3C1188.3 239 1279.7 208 1371.2 209.8C1462.7 211.7 1554.3 246.3 1645.8 259.3C1737.3 272.3 1828.7 263.7 1874.3 259.3L1920 255L1920 0L1874.3 0C1828.7 0 1737.3 0 1645.8 0C1554.3 0 1462.7 0 1371.2 0C1279.7 0 1188.3 0 1097 0C1005.7 0 914.3 0 823 0C731.7 0 640.3 0 548.8 0C457.3 0 365.7 0 274.2 0C182.7 0 91.3 0 45.7 0L0 0Z" fill="#0055ff" stroke-linecap="round" stroke-linejoin="miter"></path></svg>