<svg id="visual" viewBox="0 0 1920 1080" width="1920" height="1080" xmlns="http://www.w3.org/2000/svg" xmlns:xlink="http://www.w3.org/1999/xlink" version="1.1"><rect x="0" y="0" width="1920" height="1080" fill="#010E2F"></rect><path d="M0 456L45.7 436.7C91.3 417.3 182.7 378.7 274.2 382.8C365.7 387 457.3 434 548.8 428.8C640.3 423.7 731.7 366.3 823 306.8C914.3 247.3 1005.7 185.7 1097 191.5C1188.3 197.3 1279.7 270.7 1371.2 330.2C1462.7 389.7 1554.3 435.3 1645.8 417.2C1737.3 399 1828.7 317 1874.3 276L1920 235L1920 0L1874.3 0C1828.7 0 1737.3 0 1645.8 0C1554.3 0 1462.7 0 1371.2 0C1279.7 0 1188.3 0 1097 0C1005.7 0 914.3 0 823 0C731.7 0 640.3 0 548.8 0C457.3 0 365.7 0 274.2 0C182.7 0 91.3 0 45.7 0L0 0Z" fill="#537EC5" stroke-linecap="round" stroke-linejoin="miter"></path></svg>